<?xml version="1.0" encoding="UTF-8" standalone="no"?>
<!-- Created with Inkscape (http://www.inkscape.org/) -->

<svg
   width="30mm"
   height="30mm"
   viewBox="0 0 30 30"
   version="1.1"
   id="svg1"
   xml:space="preserve"
   inkscape:version="1.4.3 (0d15f75, 2025-12-25)"
   sodipodi:docname="manim-optics-logo.svg"
   xmlns:inkscape="http://www.inkscape.org/namespaces/inkscape"
   xmlns:sodipodi="http://sodipodi.sourceforge.net/DTD/sodipodi-0.dtd"
   xmlns="http://www.w3.org/2000/svg"
   xmlns:svg="http://www.w3.org/2000/svg"><sodipodi:namedview
     id="namedview1"
     pagecolor="#ffffff"
     bordercolor="#000000"
     borderopacity="0.25"
     inkscape:showpageshadow="2"
     inkscape:pageopacity="0.0"
     inkscape:pagecheckerboard="0"
     inkscape:deskcolor="#d1d1d1"
     inkscape:document-units="mm"
     inkscape:zoom="3.4863718"
     inkscape:cx="53.063761"
     inkscape:cy="70.27363"
     inkscape:window-width="1800"
     inkscape:window-height="1102"
     inkscape:window-x="0"
     inkscape:window-y="39"
     inkscape:window-maximized="1"
     inkscape:current-layer="layer1" /><defs
     id="defs1"><inkscape:path-effect
       effect="skeletal"
       id="path-effect6"
       is_visible="true"
       lpeversion="1"
       pattern="M 0.48001174,10.126441 17.383673,0.87726091"
       copytype="single_stretched"
       prop_scale="1"
       scale_y_rel="false"
       spacing="2.3"
       normal_offset="2.1"
       tang_offset="9.9"
       prop_units="false"
       vertical_pattern="false"
       hide_knot="false"
       fuse_tolerance="0" /><inkscape:path-effect
       effect="skeletal"
       id="path-effect5"
       is_visible="true"
       lpeversion="1"
       pattern="M -6.3723615e-7,0.99999877 H 12.75748"
       copytype="repeated"
       prop_scale="1.07"
       scale_y_rel="false"
       spacing="2.6"
       normal_offset="0"
       tang_offset="0"
       prop_units="false"
       vertical_pattern="false"
       hide_knot="false"
       fuse_tolerance="0" /></defs><g
     inkscape:label="Calque 1"
     inkscape:groupmode="layer"
     id="layer1"><g
       id="g6"
       transform="matrix(0.50061406,0,0,0.50061406,-38.64654,-4.3638231)"
       style="stroke-width:1.99754"><path
         d="m 120.54907,35.798975 a 13.56644,13.56644 0 0 0 -12.04909,7.39206 7.322214,7.322214 0 0 0 -3.41147,6.17436 7.322214,7.322214 0 0 0 3.41147,6.174366 13.56644,13.56644 0 0 0 12.04909,7.39216 13.56644,13.56644 0 0 0 13.56653,-13.566526 13.56644,13.56644 0 0 0 -13.56653,-13.56642 z"
         style="fill:#d37f65;fill-opacity:1;stroke:none;stroke-width:0.499383;stroke-linecap:round;stroke-miterlimit:3.9"
         id="path3" /><rect
         style="fill:#53588f;fill-opacity:1;stroke:none;stroke-width:3.99509;stroke-linecap:butt;stroke-miterlimit:3.9;stroke-dasharray:none"
         id="rect6"
         width="29.750042"
         height="29.023279"
         x="90.485565"
         y="14.428364" /><path
         d="m 80.207345,24.174185 a 38.740477,38.740477 0 0 1 4.78427,18.649325 38.740477,38.740477 0 0 1 -4.18204,17.508513 h 16.21779 a 34.220753,34.220753 0 0 1 -4.81808,-17.508513 34.220753,34.220753 0 0 1 5.5284,-18.649325 z"
         style="fill:#8bb09c;fill-opacity:1;stroke:none;stroke-width:0.499386;stroke-linecap:round;stroke-miterlimit:3.9"
         id="path2" /></g></g></svg>
